# xmcd CD database file
#
# Track frame offsets:
#	150
#	15171
#	35708
#	55610
#	71131
#	89144
#	112048
#	132871
#	149855
#	170270
#	193241
#	215762
#	235566
#
# Disc length: 3449 seconds
#
# Revision: 0
# Processed by: cddbd v1.5.2PL0 Copyright (c) Steve Scherf et al.
# Submitted via: CDex 1.70beta2
#
DISCID=c40d770d
DTITLE=Various Artist - Salsa Brava CD 2
DYEAR=2007
DGENRE=Salsa
TTITLE0=Sobre Las Olas
TTITLE1=De Oro
TTITLE2=No Hay Cama Pa' Tanta Gente
TTITLE3=Dime Que Pasó
TTITLE4=Echa Pa' Lante
TTITLE5=Jala Jala
TTITLE6=Talento En Televisión
TTITLE7=Donde E' Que E'
TTITLE8=Pegaso
TTITLE9=Cali Pachanguero
TTITLE10=Los Charcos
TTITLE11=Torero
TTITLE12=Idilio
EXTD=YEAR: 2007
EXTT0=
EXTT1=
EXTT2=
EXTT3=
EXTT4=
EXTT5=
EXTT6=
EXTT7=
EXTT8=
EXTT9=
EXTT10=
EXTT11=
EXTT12=
PLAYORDER=
